<svg width="164" height="25" fill="none" xmlns="http://www.w3.org/2000/svg"><path d="M41.944 16.26a9.978 9.978 0 0 1-.192 1.894 5.675 5.675 0 0 1-.71 1.852 4.116 4.116 0 0 1-1.504 1.419 4.968 4.968 0 0 1-2.49.553 4.775 4.775 0 0 1-3.18-.993 5.031 5.031 0 0 1-1.632-2.611l2.683-.76c.117.497.384.946.766 1.285.366.31.833.477 1.313.468a2.03 2.03 0 0 0 1.029-.227c.267-.155.484-.384.624-.66.157-.32.263-.662.312-1.015.065-.424.096-.854.093-1.284V5.19h2.888v11.07ZM48.388 5.19h10.835v2.54h-7.926v4.158h7.515v2.448h-7.515v4.62h8.345v2.59H48.388V5.189ZM69.768 7.73H64.75V5.19h12.943v2.54h-5.017v13.823h-2.91V7.73ZM94.114 9.021a3.746 3.746 0 0 0-1.69-1.277 5.677 5.677 0 0 0-4.343.057c-.678.296-1.29.728-1.794 1.27a5.677 5.677 0 0 0-1.15 1.895 6.705 6.705 0 0 0-.404 2.356c-.011.834.121 1.665.39 2.455a5.575 5.575 0 0 0 1.121 1.902 4.968 4.968 0 0 0 1.746 1.234c.722.305 1.5.455 2.285.44a5.03 5.03 0 0 0 2.334-.518 4.463 4.463 0 0 0 1.64-1.376l2.334 1.639a7.385 7.385 0 0 1-2.654 2.129 8.395 8.395 0 0 1-3.676.752 9.624 9.624 0 0 1-3.548-.632 7.984 7.984 0 0 1-4.562-4.506 9.175 9.175 0 0 1-.646-3.505 8.914 8.914 0 0 1 .71-3.548 7.906 7.906 0 0 1 1.873-2.69 8.303 8.303 0 0 1 2.838-1.71 9.935 9.935 0 0 1 3.513-.603c.55.003 1.098.053 1.639.15.56.1 1.11.257 1.64.468.518.202 1.013.461 1.475.773.457.297.858.671 1.185 1.107l-2.257 1.738ZM101.586 5.19h2.909v13.773h6.99v2.59h-9.864l-.035-16.364ZM122.668 5.19h2.519l7.046 16.363h-3.328l-1.525-3.747h-7.096l-1.476 3.747h-3.257l7.117-16.364Zm3.718 10.118-2.54-6.649-2.569 6.656 5.109-.007ZM145.34 8.61a3.433 3.433 0 0 0-1.306-1.008 3.89 3.89 0 0 0-1.696-.404 4.15 4.15 0 0 0-1.015.128 3.245 3.245 0 0 0-.922.39 2.13 2.13 0 0 0-.71.71c-.179.312-.27.668-.262 1.028-.01.333.071.661.234.951.156.268.372.497.631.667.307.204.639.369.987.49.383.135.809.277 1.27.412.461.134 1.064.361 1.625.581a6.196 6.196 0 0 1 1.547.852c.477.358.872.816 1.156 1.341.323.619.48 1.31.455 2.008a5.087 5.087 0 0 1-.49 2.3 4.664 4.664 0 0 1-1.292 1.631 5.569 5.569 0 0 1-1.894.973 8.083 8.083 0 0 1-2.285.319 8.51 8.51 0 0 1-3.122-.59 5.99 5.99 0 0 1-2.498-1.745l2.079-1.937a4.148 4.148 0 0 0 1.611 1.313c.926.487 2 .616 3.016.362.343-.08.668-.225.958-.426a2.4 2.4 0 0 0 .709-.752c.189-.343.282-.73.27-1.121a1.856 1.856 0 0 0-.298-1.079 2.913 2.913 0 0 0-.809-.71 5.769 5.769 0 0 0-1.206-.539l-1.455-.49a12.503 12.503 0 0 1-1.476-.553 4.855 4.855 0 0 1-1.334-.851c-.4-.37-.725-.814-.958-1.306a4.553 4.553 0 0 1-.369-1.93 4.251 4.251 0 0 1 .518-2.13 4.521 4.521 0 0 1 1.369-1.49 5.922 5.922 0 0 1 1.916-.88 8.408 8.408 0 0 1 2.186-.29c.86.006 1.714.155 2.526.44a6.104 6.104 0 0 1 2.235 1.32L145.34 8.61ZM161.554 8.61a3.5 3.5 0 0 0-1.306-1.008 3.886 3.886 0 0 0-2.718-.276 3.342 3.342 0 0 0-.922.39 2.204 2.204 0 0 0-.71.71 1.906 1.906 0 0 0-.262 1.028c-.012.332.066.66.227.951.161.267.379.494.638.667.306.203.634.367.98.49.383.135.809.277 1.27.412.461.134 1.071.361 1.632.581a6.196 6.196 0 0 1 1.547.852c.475.36.869.818 1.156 1.341.318.62.471 1.312.447 2.008a5.083 5.083 0 0 1-.482 2.3 4.755 4.755 0 0 1-1.292 1.631 5.569 5.569 0 0 1-1.894.973 8.1 8.1 0 0 1-2.292.319 8.456 8.456 0 0 1-3.115-.59 5.937 5.937 0 0 1-2.498-1.745l2.079-1.937a4.125 4.125 0 0 0 1.604 1.313 4.5 4.5 0 0 0 1.98.49 4.456 4.456 0 0 0 1.036-.128c.343-.08.668-.225.957-.426.288-.197.531-.453.71-.752.189-.343.282-.73.27-1.121a1.866 1.866 0 0 0-.305-1.079 2.73 2.73 0 0 0-.809-.71 5.678 5.678 0 0 0-1.2-.539l-1.454-.49a12.523 12.523 0 0 1-1.483-.553 4.81 4.81 0 0 1-1.327-.851c-.4-.37-.725-.814-.958-1.306a4.46 4.46 0 0 1-.369-1.93 4.196 4.196 0 0 1 .518-2.13 4.574 4.574 0 0 1 1.362-1.49 6 6 0 0 1 1.916-.88 8.45 8.45 0 0 1 2.186-.29 7.87 7.87 0 0 1 2.533.44 6.135 6.135 0 0 1 2.228 1.32l-1.88 2.015Z" fill="#fff"/><path d="M9.083 12.98 1.057 15.7 0 17.06l.22-1.703c.083-.455.337-.861.71-1.135l8.124-5.677.029 4.435Zm3.548-.297 8.898 3.016 1.064 1.362-.22-1.703a1.83 1.83 0 0 0-.709-1.135L12.666 7.9c0-1.98-.07-4.094-.163-5.208A4.626 4.626 0 0 0 11.687.18a.439.439 0 0 0-.71 0 4.706 4.706 0 0 0-.809 2.512c-.177 2.022-.191 7.18-.184 9.296-.001.621.037 1.242.114 1.859l.205 2.128h-.425v-.71c0-.276-.22-.361-.497-.361h-.263c-.276 0-.504.085-.504.362l.142 3.449a.497.497 0 0 0 .497.503h.128a.504.504 0 0 0 .49-.433l.61.298.12 1.235-3.647 2.838v1.022l4.371-1.823 4.378 1.823v-1.021l-3.654-2.839.12-1.22.71-.313a.504.504 0 0 0 .497.433h.12a.504.504 0 0 0 .504-.503l.135-3.45c0-.276-.22-.361-.497-.361h-.262c-.277 0-.504.085-.504.362v.71h-.49l.213-2.13c-.028-.383 0-.773.014-1.163h.022Z" fill="url(#a)"/><defs><linearGradient id="a" x1="0" y1="12.101" x2="22.572" y2="12.101" gradientUnits="userSpaceOnUse"><stop stop-color="#13B89B"/><stop offset="1" stop-color="#29ABE2"/></linearGradient></defs></svg>